PathFileType	4	(X/Y/Z)	F:\MotionCapture\20160217\3\Generated_files\EMG_test05-Dynamic.trc
DataRate	CameraRate	NumFrames	NumMarkers	Units	OrigDataRate	OrigDataStartFrame	OrigNumFrames
120.00	120.00	       5	39	mm	120.00	268	       714
Frame#	Time	Top.Head			Front.Head			Rear.Head			R.Shoulder			R.Offset			R.Elbow			R.Wrist			L.Shoulder			L.Elbow			L.Wrist			R.ASIS			L.ASIS			V.Sacral			R.Thigh			R.Knee			R.Shank			R.Ankle			R.Heel			R.Toe			L.Thigh			L.Knee			L.Shank			L.Ankle			L.Heel			L.Toe			R1			R2			R3			R4			R5			R6			R7			L1			L2			L3			L4			L5			L6			L7			V_Mid_ASIS			V_Pelvis_Origin			V_R.Hip_JC			V_L.Hip_JC			V_R.Knee_JC			V_L.Knee_JC			V_R.Ankle_JC			V_L.Ankle_JC			V_Mid_Hip			V_Mid_Shoulder			V_R.Hand			V_L.Hand			V_R.Toe_Offset_Static			V_L.Toe_Offset_Static			V_R.Toe_Offset			V_L.Toe_Offset			
		X1	Y1	Z1	X2	Y2	Z2	X3	Y3	Z3	X4	Y4	Z4	X5	Y5	Z5	X6	Y6	Z6	X7	Y7	Z7	X8	Y8	Z8	X9	Y9	Z9	X10	Y10	Z10	X11	Y11	Z11	X12	Y12	Z12	X13	Y13	Z13	X14	Y14	Z14	X15	Y15	Z15	X16	Y16	Z16	X17	Y17	Z17	X18	Y18	Z18	X19	Y19	Z19	X20	Y20	Z20	X21	Y21	Z21	X22	Y22	Z22	X23	Y23	Z23	X24	Y24	Z24	X25	Y25	Z25	X26	Y26	Z26	X27	Y27	Z27	X28	Y28	Z28	X29	Y29	Z29	X30	Y30	Z30	X31	Y31	Z31	X32	Y32	Z32	X33	Y33	Z33	X34	Y34	Z34	X35	Y35	Z35	X36	Y36	Z36	X37	Y37	Z37	X38	Y38	Z38	X39	Y39	Z39	

268	2.225	-1401.86169	146.34854	1719.46985	-1283.14587	147.91521	1646.75977	-1503.62439	154.16708	1640.71179	-1445.18945	-43.62286	1408.38538	-1561.90259	234.77496	1269.79565	-1539.15735	-150.90663	1105.63062	-1481.39282	-191.46112	851.23389	-1397.01318	361.09158	1416.15186	-1345.22961	458.41144	1093.44299	-1148.27454	410.29916	934.02893	-1355.68311	23.14061	935.90320	-1365.22949	310.14908	932.15314	-1585.45374	154.99316	935.55554	-1192.86230	35.74112	627.53766	-1222.09888	-2.60566	498.14468	-1177.49744	75.26453	270.62836	-1206.12451	18.25047	92.81245	-1263.74133	88.06319	61.27534	-1063.60730	33.94634	77.51746	-1361.61621	244.17192	604.44232	-1480.75903	281.88593	454.17474	-1489.01892	195.96086	318.78131	-1594.86597	241.37831	59.59567	-1658.91357	182.86520	46.31910	-1455.29187	234.10338	40.91182	-1023.40466	44.97359	94.35185	-1057.01440	68.84132	88.44744	-1147.32813	103.47141	95.86905	-1216.26550	113.45516	72.52285	-1237.49731	41.73371	60.33282	-1159.41467	9.08704	54.17470	-1096.31030	-0.92442	58.98150	-1412.61584	208.06706	39.15575	-1442.85999	195.11763	45.97361	-1537.15466	152.64818	52.26563	-1620.19495	150.99944	47.48727	-1633.43054	222.93196	42.30901	-1559.26184	251.54465	32.33871	-1495.14465	266.75482	36.97597																																																	-1527.57715	226.28714	-83.09607	
269	2.233	-1390.71606	146.19371	1717.19238	-1272.11438	147.41605	1644.39050	-1492.61816	154.24683	1638.56799	-1434.35083	-43.93302	1406.39709	-1551.25867	234.32652	1267.72827	-1530.45947	-151.04729	1104.59241	-1476.72339	-192.75774	849.63403	-1386.39001	361.24780	1414.08923	-1330.59937	457.68622	1091.74805	-1129.72375	406.58530	937.80615	-1345.25977	23.08182	933.04346	-1355.09485	309.78992	930.02136	-1574.57336	154.42279	933.94366	-1184.49939	37.34539	622.67529	-1212.31775	-0.07491	495.04877	-1157.68213	74.98465	270.05502	-1177.27515	15.57149	92.01517	-1233.51868	84.63792	56.49782	-1034.10266	32.49999	83.08456	-1354.83411	244.24786	602.17847	-1475.69409	281.72952	452.47122	-1485.62439	195.93213	317.56165	-1593.59851	240.01608	59.52940	-1658.54211	182.13699	46.97935	-1454.91980	234.21849	40.71408	-994.27039	44.31086	100.89174	-1028.04041	67.05969	93.22966	-1119.62451	102.06099	96.61214	-1186.89539	110.70206	69.80900	-1207.55713	38.26801	58.31884	-1128.68335	6.45228	55.69656	-1065.68445	-3.12694	63.65276	-1412.10461	208.06964	38.56830	-1442.18750	195.38388	45.56430	-1536.69348	152.19817	52.14563	-1619.76831	150.52179	47.70708	-1632.84607	221.85500	43.13704	-1559.12024	251.27719	32.46650	-1495.11316	266.86298	36.83222																																																	-1716.18628	228.77441	-28.84874	
270	2.242	-1379.67175	145.88838	1714.70471	-1260.80786	147.11316	1642.30225	-1481.50024	154.10472	1636.29761	-1423.44702	-44.45244	1404.40991	-1540.45117	233.67908	1265.50989	-1522.15100	-151.45718	1103.54736	-1470.70166	-194.22624	848.11182	-1375.12500	360.39734	1411.55359	-1316.21863	456.68799	1089.88953	-1112.56079	403.38358	941.51166	-1333.39038	22.63358	930.27106	-1345.58569	310.21454	928.32745	-1563.97864	153.57042	932.22894	-1176.04919	39.58863	617.18848	-1202.25854	2.70845	492.10022	-1138.09448	75.17884	269.60822	-1148.84131	13.73649	91.57546	-1205.02209	81.53448	53.00814	-1006.35651	30.47773	89.03387	-1346.54175	245.01308	600.14050	-1470.95898	281.88757	451.82190	-1481.74255	195.59390	316.75363	-1593.48450	240.10501	59.98033	-1658.02576	181.43454	47.64860	-1454.57104	234.31120	40.51933	-967.42108	42.74242	108.72061	-1001.21924	65.58369	99.62731	-1092.48010	99.89027	97.71685	-1158.58948	108.04249	67.72466	-1178.30115	35.59047	56.55221	-1098.19006	3.45169	57.81398	-1036.43396	-4.90680	68.45504	-1411.33936	208.55394	37.49014	-1441.98401	195.22397	45.10906	-1535.92859	151.90494	52.00191	-1618.96606	149.79463	48.22054	-1632.58203	221.93124	43.50247	-1559.15601	251.08737	32.59394	-1495.07983	267.04916	36.77573																																																	-1715.83875	228.29422	-28.38236	
271	2.250	-1368.67334	145.86089	1712.46021	-1250.49768	146.85394	1639.87634	-1470.23975	153.99005	1634.14807	-1412.81494	-44.89000	1402.42505	-1529.66150	233.29860	1263.17859	-1513.35730	-151.85774	1102.08984	-1464.80298	-195.43578	846.45679	-1364.08569	360.05249	1408.77820	-1301.77551	455.69797	1087.55835	-1094.95959	399.74414	944.90906	-1321.70496	22.65030	926.98206	-1335.31360	309.74716	926.14429	-1552.89697	152.91687	930.31433	-1167.78845	41.98438	611.60242	-1192.88342	4.93439	489.53519	-1120.03882	75.16067	269.81628	-1122.97961	11.56528	92.04779	-1176.38989	78.51919	49.51484	-979.86230	28.78453	95.48613	-1339.07227	245.45100	597.99573	-1465.20313	281.93311	450.72873	-1477.75452	196.03719	315.52213	-1593.06750	239.00504	60.56570	-1657.47070	180.27731	48.99286	-1454.36707	234.40541	40.11737	-940.98077	41.78176	115.44720	-975.31158	64.36985	105.25854	-1066.63306	98.03634	99.37643	-1131.61487	105.75591	66.65178	-1150.31274	33.23166	55.48747	-1071.96350	1.45673	60.96603	-1009.96783	-7.26195	74.55409	-1410.38904	208.63223	36.46874	-1441.33228	195.38658	44.87077	-1535.35193	151.70808	51.77258	-1618.38647	149.33449	48.70255	-1631.93323	220.43858	44.41665	-1559.05457	250.71451	32.77575	-1494.96350	267.22815	36.68942																																																	-1715.46240	227.74260	-27.75212	-1221.89343	60.09885	2.99516	-1653.55212	199.73636	100.68729	
272	2.258	-1357.52368	145.59085	1710.11963	-1238.94934	146.32516	1637.54468	-1459.35315	153.63417	1631.66223	-1401.89526	-45.79121	1400.28320	-1518.93848	232.58241	1260.80725	-1504.56604	-152.62971	1100.95569	-1458.10303	-196.69527	844.59900	-1352.79443	359.38010	1405.80652	-1287.74011	454.94089	1085.38611	-1077.94336	396.66599	948.58313	-1309.48206	21.69950	924.53876	-1324.62842	309.17471	923.84814	-1542.03723	152.07185	928.34229	-1160.13525	43.93811	606.23407	-1182.75696	7.03303	487.04977	-1103.13623	75.57848	270.11212	-1098.42822	10.19256	93.16817	-1150.90259	76.78117	48.33571	-955.65808	27.14296	102.07502	-1331.45471	246.31697	595.69989	-1459.37537	281.46600	449.48761	-1471.50452	197.27464	315.15808	-1593.38684	239.49678	61.98923	-1656.99829	179.58392	49.88123	-1454.11108	234.52148	40.00869	-917.95563	40.31623	123.62681	-951.06573	62.59177	111.49083	-1042.13586	96.86836	101.36368	-1106.05591	104.02637	66.30473	-1124.15002	31.59491	55.17860	-1045.18677	0.19931	63.78612	-985.05511	-9.33720	80.74250	-1409.96948	209.03841	35.84388	-1441.36877	195.58014	44.00916	-1534.46228	151.55878	51.61281	-1617.58630	148.61534	49.51942	-1631.77246	220.32449	45.05907	-1558.82642	250.10440	32.82890	-1494.87451	267.21655	36.59572																																																	-1489.11304	158.74918	-99.41896	
